<?xml version="1.0" encoding="utf-8"?>
<!-- Generator: Adobe Illustrator 23.0.0, SVG Export Plug-In . SVG Version: 6.00 Build 0)  -->
<svg version="1.1" id="图层_1" xmlns="http://www.w3.org/2000/svg" xmlns:xlink="http://www.w3.org/1999/xlink" x="0px" y="0px"
	 viewBox="0 0 32 32" style="enable-background:new 0 0 32 32;" xml:space="preserve">
<style type="text/css">
	.st0{fill:#39B54A;}
</style>
<g>
	<path class="st0" d="M0.48,18.89c0-1.94,0-3.88,0-5.81c1.33-3.54,2.83-6.93,5.97-9.33c2.01-1.54,4.39-2.22,6.62-3.26
		c1.94,0,3.88,0,5.81,0c3.65,1.3,7.08,2.9,9.5,6.16c1.46,1.96,2.09,4.28,3.1,6.43c0,1.78,0,3.55,0,5.33
		c-1.12,3.9-2.83,7.42-6.19,9.96c-1.95,1.47-4.26,2.11-6.4,3.12c-1.94,0-3.88,0-5.81,0c-2.24-1.01-4.63-1.68-6.64-3.23
		C3.29,25.83,1.77,22.45,0.48,18.89z M22.76,16.79c-0.59-0.19-0.91-0.23-1.17-0.39c-0.68-0.4-1.43-0.73-1.84,0.17
		c-0.36,0.79,0.57,1.03,1.02,1.38c1.46,1.14,2.96,2.22,4.46,3.31c0.44,0.32,0.91,0.81,1.49,0.29c0.52-0.48,0.28-1.05,0-1.55
		c-1.65-2.95-3.32-5.88-4.99-8.82c-0.62-1.1-1.28-1.13-1.93-0.03c-0.41,0.69-0.75,1.42-1.17,2.11c-1.47,2.39-2.86,4.86-5.45,6.28
		c-2.03,1.12-4.31,0.78-5.68-0.93c-1.28-1.59-1.24-3.37-0.01-4.89c1.38-1.71,3.23-2.4,5.37-1.29c0.92,0.48,1.79,1.07,2.64,1.67
		c0.57,0.4,1.06,0.38,1.47-0.15c0.42-0.54-0.06-0.88-0.39-1.2c-1-0.96-2.15-1.67-3.47-2.11c-2.73-0.92-5.5-0.1-7.09,2.12
		c-1.54,2.16-1.46,4.75,0.23,6.94c1.56,2.03,4.28,2.65,6.99,1.7c2.64-0.92,3.97-3.16,5.43-5.27c0.67-0.97,1.01-2.79,2.05-2.7
		C21.85,13.53,22.24,15.25,22.76,16.79z"/>
</g>
</svg>
