<?xml version="1.0" standalone="no"?><!DOCTYPE svg PUBLIC "-//W3C//DTD SVG 1.1//EN" "http://www.w3.org/Graphics/SVG/1.1/DTD/svg11.dtd"><svg t="1563500803647" class="icon" viewBox="0 0 1024 1024" version="1.1" xmlns="http://www.w3.org/2000/svg" p-id="2462" width="32" height="32" xmlns:xlink="http://www.w3.org/1999/xlink"><defs><style type="text/css"></style></defs><path d="M1014.4 912l-198.4-198.4c54.4-73.6 83.2-166.4 83.2-262.4 0-249.6-201.6-448-448-448S0 201.6 0 448s201.6 448 448 448c99.2 0 188.8-32 262.4-83.2l198.4 198.4c12.8 12.8 38.4 12.8 51.2 0l51.2-51.2c16-12.8 16-35.2 3.2-48zM448 771.2c-176 0-320-144-320-320S272 128 448 128s320 144 320 320-140.8 323.2-320 323.2z" p-id="2463"></path></svg>