<?xml version="1.0" standalone="no"?><!DOCTYPE svg PUBLIC "-//W3C//DTD SVG 1.1//EN" "http://www.w3.org/Graphics/SVG/1.1/DTD/svg11.dtd"><svg class="icon" width="32px" height="32.00px" viewBox="0 0 1024 1024" version="1.1" xmlns="http://www.w3.org/2000/svg"><path d="M855.2 810.2L881 526.5c3.3-36-25.1-67.1-61.3-67.1H203.6c-36.2 0-64.6 31.1-61.3 67.1l25.8 283.7h-44.2v98.5h209.3v-49.2H407v49.2h209.3v-49.2h73.9v49.2h209.3v-98.5h-44.3z" fill="#51B5ED" /><path d="M219 703.1c-6.3 0-11.7-4.8-12.3-11.2L191.3 522c-0.3-3.4 0.8-6.9 3.2-9.4s5.6-4 9.1-4h99.1c6.8 0 12.3 5.5 12.3 12.3 0 6.8-5.5 12.3-12.3 12.3h-85.6l14.2 156.5c0.6 6.8-4.4 12.8-11.2 13.4H219z" fill="#FFFFFF" /><path d="M357.8 520.9m-12.3 0a12.3 12.3 0 1 0 24.6 0 12.3 12.3 0 1 0-24.6 0Z" fill="#FFFFFF" /><path d="M123.9 859.4h209.3v49.2H123.9zM407 859.4h209.3v49.2H407zM855.2 810.2L881 526.5c3.3-36-25.1-67.1-61.3-67.1h-61.6c36.2 0 64.6 31.1 61.3 67.1l-25.8 283.7h31.9v49.2H690.2v49.2h209.3v-98.4h-44.3z" fill="#2996D3" /><path d="M899.4 791.7h-24l24-263.6c2-22.3-5.5-44.6-20.6-61.2-15.1-16.6-36.7-26.1-59.1-26.1H631l-20-129.6c-2.6-16.8 4.2-33.3 17.7-43.1 25.7-18.6 39.9-43.1 39.9-68.8 0-60.4-74.8-115.5-157-115.5s-157 55-157 115.5c0 25.7 14.2 50.2 39.9 68.8 13.6 9.8 20.4 26.4 17.7 43.2l-20 129.5H203.6c-22.4 0-44 9.5-59.1 26.1-15.1 16.6-22.6 38.9-20.6 61.2l24 263.6h-24c-10.2 0-18.5 8.3-18.5 18.5v98.5c0 10.2 8.3 18.5 18.5 18.5h209.3c10.2 0 18.5-8.3 18.5-18.5V884h36.9v24.6c0 10.2 8.3 18.5 18.5 18.5h209.3c10.2 0 18.5-8.3 18.5-18.5V884h36.9v24.6c0 10.2 8.3 18.5 18.5 18.5h209.3c10.2 0 18.5-8.3 18.5-18.5v-98.5c-0.2-10.1-8.5-18.4-18.7-18.4z m-79.7-313.9c12.3 0 23.6 5 31.8 14 8.3 9.1 12.2 20.8 11.1 33l-24.3 266.9H690.2c-1.7 0-3.3 0.3-4.9 0.7l-48.6-314.7h183zM391.6 199.4c0-35.6 53.5-78.6 120-78.6s120 43 120 78.6c0 18.3-15.4 32.2-24.6 38.9-24.9 18-37.3 48.2-32.6 78.7l19.1 123.9h-164L448.8 317c4.8-30.6-7.7-60.7-32.6-78.7-9.2-6.7-24.6-20.6-24.6-38.9zM171.8 491.8c8.3-9 19.6-14 31.8-14h183L338 792.5c-1.6-0.4-3.2-0.7-4.9-0.7H184.9l-24.3-266.9c-1-12.3 2.9-24 11.2-33.1z m142.9 398.4H142.3v-61.6h172.3v61.6z m283.1 0H425.5v-61.6h172.3v61.6z m18.5-98.5H407c-10.2 0-18.5 8.3-18.5 18.5v36.9H367l57-369.3h175.3l57 369.3h-21.6v-36.9c0.1-10.2-8.2-18.5-18.4-18.5zM881 890.2H708.6v-61.6H881v61.6z" fill="#2D3742" /></svg>